<svg version="1.1" id="Layer_1" xmlns="http://www.w3.org/2000/svg" xmlns:xlink="http://www.w3.org/1999/xlink" x="0px" y="0px"
	 width="100%" viewBox="0 0 1024 1024" enable-background="new 0 0 1024 1024" xml:space="preserve">
<path fill="#d32f2f" opacity="1.000000" stroke="none" 
	d="
M206.212738,878.371216 
	C179.152054,887.841797 152.445999,897.138123 125.797630,906.596924 
	C118.032280,909.353210 110.338875,910.115784 102.371437,907.697021 
	C87.450630,903.167358 82.401299,889.666443 84.165100,876.664490 
	C86.097099,862.422729 91.396187,849.025635 95.167023,835.246704 
	C106.308273,794.535706 117.632744,753.874817 128.837326,713.181030 
	C137.883102,680.327820 146.905823,647.468018 155.844650,614.585571 
	C159.896561,599.680176 163.790665,584.730713 167.614441,569.765015 
	C169.225693,563.458801 172.293060,558.277527 176.939926,553.614990 
	C258.566986,471.712677 340.082977,389.699646 421.644531,307.732056 
	C471.474182,257.654266 521.340454,207.613022 571.189697,157.554810 
	C585.530212,143.154221 599.800964,128.683426 614.225220,114.367348 
	C632.795471,95.936333 655.350647,85.035545 680.948975,80.777130 
	C721.780029,73.984695 758.217407,85.540283 791.400146,108.941597 
	C807.476318,120.278915 822.457031,133.012192 835.958008,147.358383 
	C859.550049,172.427429 878.649780,200.421188 887.191345,234.165115 
	C898.091614,277.227814 888.431763,316.371979 860.571289,350.571686 
	C845.114990,369.544739 826.590454,385.776886 809.331421,403.122986 
	C741.785217,471.010223 674.061646,538.721008 606.435913,606.529175 
	C541.733826,671.405884 476.954529,736.206665 412.527985,801.356079 
	C403.733154,810.249634 392.691010,813.178101 381.817657,817.015625 
	C342.760315,830.799866 303.619141,844.346436 264.513916,857.995056 
	C245.200912,864.735840 225.897263,871.503418 206.212738,878.371216 
M505.004761,299.504425 
	C477.766235,326.913544 450.528687,354.323669 423.288849,381.731506 
	C388.639709,416.594330 353.984680,451.451294 319.339905,486.318451 
	C297.612122,508.185669 275.859711,530.028625 254.211090,551.974060 
	C249.812698,556.432800 250.144455,557.880798 256.022125,559.768799 
	C272.162231,564.953430 288.345642,570.011902 304.586670,574.870544 
	C314.311462,577.779846 323.738739,580.826843 328.722382,590.849792 
	C330.951538,595.333008 333.348541,599.769104 334.292847,604.707764 
	C336.539551,616.457825 338.429657,628.277283 340.776642,640.006165 
	C341.382141,643.031982 341.083984,647.064880 344.950012,648.381653 
	C348.865967,649.715393 352.925323,650.733093 356.996521,651.484924 
	C366.105591,653.167175 375.338745,654.228882 384.216095,657.027893 
	C393.371979,659.914673 402.465881,662.768799 405.383179,673.741821 
	C408.715729,686.277100 412.321045,698.740356 415.875305,711.215759 
	C416.635284,713.883179 416.802277,717.363098 419.753784,718.363342 
	C422.813690,719.400330 424.291626,716.113220 426.069641,714.330872 
	C514.091736,626.095947 602.070312,537.817566 690.054932,449.545258 
	C704.641724,434.910797 719.219971,420.267761 733.840881,405.667480 
	C735.846985,403.664246 737.245728,401.741028 736.147522,398.652649 
	C728.327942,376.661957 720.122803,354.826996 707.933044,334.793060 
	C690.966858,306.909027 668.529968,284.060150 641.944397,265.382141 
	C621.933289,251.323059 600.222656,240.557892 576.294922,234.617142 
	C572.314636,233.628922 569.615845,234.198807 566.660889,237.217865 
	C546.391357,257.927368 525.932495,278.451538 505.004761,299.504425 
M796.061646,342.571106 
	C803.866760,334.367859 812.407959,326.883972 819.624512,318.101105 
	C843.120789,289.505219 845.846252,258.131104 827.995361,225.836838 
	C817.731934,207.268936 804.426941,191.158264 789.451294,176.349579 
	C771.990356,159.083252 752.503357,144.562744 729.138428,136.362869 
	C700.045959,126.152924 673.704285,131.541824 651.060303,152.677567 
	C641.199219,161.881836 631.892212,171.681274 622.373535,181.250275 
	C613.001282,190.672119 613.056702,190.614731 625.225952,195.697067 
	C670.559753,214.630234 707.655273,244.143265 737.185547,283.269989 
	C753.242126,304.544586 765.832092,327.750732 775.218445,352.694702 
	C776.037231,354.870605 776.766479,357.088867 779.481445,358.418732 
	C785.385620,353.970367 790.059326,348.069000 796.061646,342.571106 
M245.679184,611.992859 
	C237.163864,609.129761 228.565063,606.487488 220.167770,603.312256 
	C215.848389,601.679016 213.552475,602.623230 212.427399,606.981689 
	C210.390488,614.872620 208.329834,622.757385 206.255478,630.638550 
	C199.102707,657.814392 191.929474,684.984924 184.786972,712.163452 
	C182.635971,720.348450 180.443558,728.525513 178.489456,736.758240 
	C177.166595,742.331482 178.598160,744.027649 184.524429,744.751221 
	C185.184738,744.831909 185.848129,744.929382 186.492935,745.088623 
	C217.525070,752.753357 238.000473,771.326416 245.186111,802.966187 
	C246.411346,808.361084 248.076553,808.409424 252.397873,806.888916 
	C272.801361,799.709961 293.296234,792.791260 313.740234,785.726868 
	C331.831451,779.475525 349.878021,773.094238 367.994598,766.917786 
	C371.381317,765.763123 372.835815,764.428406 371.852478,760.481079 
	C367.714355,743.869690 363.432953,727.301941 358.523468,710.900635 
	C357.698395,708.144287 356.053497,706.803528 352.943542,706.118652 
	C338.027405,702.833496 322.955750,700.235168 308.271851,695.874023 
	C300.845520,693.668396 296.227905,689.495850 294.600800,681.729309 
	C291.026489,664.668213 288.649597,647.407532 285.723480,630.239990 
	C285.026611,626.151489 283.473083,623.869629 279.238281,622.650635 
	C268.217041,619.478210 257.355560,615.750977 245.679184,611.992859 
z"/>
<path fill="#d32f2f" opacity="1.000000" stroke="none" 
	d="
M509.771851,474.772308 
	C470.545776,513.981628 431.493164,552.864807 392.664368,591.970215 
	C384.098724,600.596924 374.196472,603.829651 362.744385,600.817566 
	C348.240936,597.003052 338.919464,571.098572 352.443665,557.677551 
	C378.454773,531.864868 404.071960,505.655701 429.918640,479.676758 
	C475.389221,433.973602 520.921997,388.332306 566.399658,342.636200 
	C577.206665,331.777283 587.957031,320.860504 598.624634,309.864838 
	C606.346436,301.905548 616.203918,300.647644 626.285339,301.666565 
	C631.856140,302.229584 636.145691,306.444580 639.009583,311.386688 
	C646.363464,324.077148 645.011536,339.647186 634.732056,349.891785 
	C593.104736,391.377747 551.585205,432.971893 509.771851,474.772308 
z"/>
</svg>